<svg id="Layer_1" data-name="Layer 1" xmlns="http://www.w3.org/2000/svg" viewBox="0 0 100 100"><defs><style>.cls-1{fill:#f4b400;}.cls-2{fill:none;}.cls-3{fill:#1a1a1a;}</style></defs><title>Artboard 45 copy 3</title><path class="cls-1" d="M47.31,70.37a2.49,2.49,0,0,1,1.77.65l-.42.65a2.09,2.09,0,0,0-1.3-.5,1.56,1.56,0,0,0-1.61,1.64,1.62,1.62,0,0,0,1.61,1.71,2.06,2.06,0,0,0,1.39-.61l.46.63a2.58,2.58,0,0,1-1.88.77,2.47,2.47,0,0,1,0-4.94Z"/><path class="cls-1" d="M50.68,70.45h1.54a2.1,2.1,0,0,1,1,.14,1.34,1.34,0,0,1,.78,1.3,1.38,1.38,0,0,1-.81,1.31h0a1.3,1.3,0,0,1,.17.24l1,1.78h-1l-.95-1.78h-.83v1.78h-.87Zm1.65,2.24a.69.69,0,0,0,.75-.75c0-.46-.19-.74-.87-.74h-.66v1.49Z"/><path class="cls-1" d="M55.78,70.45h2.86v.75h-2v1.25h1.6v.75h-1.6v1.28h2.1v.75h-3Z"/><path class="cls-1" d="M62.69,74H61l-.41,1.22h-.89l1.68-4.78h.91L64,75.23H63.1Zm-.84-2.73a6.92,6.92,0,0,1-.2.74l-.42,1.28h1.25L62.05,72c-.08-.27-.18-.74-.18-.74Z"/><path class="cls-1" d="M66,71.2H64.42v-.75h4v.75H66.86v4H66Z"/><path class="cls-1" d="M69.73,70.45h.87v4.78h-.87Z"/><path class="cls-1" d="M71.87,70.45h.93l1,3.12c.1.27.18.7.19.7h0s.09-.43.18-.7l1.06-3.12h.93l-1.75,4.78h-.86Z"/><path class="cls-1" d="M77.49,70.45h2.86v.75h-2v1.25H80v.75H78.35v1.28h2.1v.75h-3Z"/><path class="cls-1" d="M82.14,74a1.89,1.89,0,0,0,1.19.5c.36,0,.69-.19.69-.58,0-.85-2.25-.7-2.25-2.17a1.46,1.46,0,0,1,1.6-1.39,2,2,0,0,1,1.42.51l-.37.71a1.75,1.75,0,0,0-1.06-.42.65.65,0,0,0-.72.58c0,.84,2.25.63,2.25,2.16a1.43,1.43,0,0,1-1.58,1.4,2.33,2.33,0,0,1-1.65-.65Z"/><path class="cls-1" d="M77.82,66.6H73.35L67.78,61l-1.31,1.16V66.6H63.32V38.31c0-1.85-.77-3.48-3.09-3.48A4.12,4.12,0,0,0,56,38.93v6.54H52.83V32.2h2.92V34a6.25,6.25,0,0,1,4.73-2.16c3.13,0,6,2.14,6,6.46v20L71.67,53h4.22l-5.81,5.82Z"/><path class="cls-2" d="M24.35,38.83A4.18,4.18,0,1,0,20.19,43,4.1,4.1,0,0,0,24.35,38.83Z"/><path class="cls-2" d="M43.81,43.05c2.64,0,3.92-1.29,4.24-3H43.61c-1.6,0-2.47.45-2.47,1.41C41.14,42.18,41.64,43.05,43.81,43.05Z"/><path class="cls-2" d="M75.15,34.71a4.12,4.12,0,1,0,4.17,4.12A4.11,4.11,0,0,0,75.15,34.71Z"/><path class="cls-2" d="M22.57,62.31c0,.72.49,1.58,2.66,1.58,2.64,0,3.92-1.28,4.24-3H25C23.43,60.91,22.57,61.35,22.57,62.31Z"/><path class="cls-3" d="M27.51,38.83a6.69,6.69,0,0,0-11.66-4.74V26.77h-3V45.46h3V43.54a6.69,6.69,0,0,0,11.66-4.71ZM16,38.83A4.18,4.18,0,1,1,20.19,43,4.12,4.12,0,0,1,16,38.83Z"/><path class="cls-3" d="M38,35.25V32.17a9,9,0,0,0-2-.3,4,4,0,0,0-3.86,2.82v-2.5H29.14V45.46h3.15V41.17c0-3.85.92-6.24,3.75-6.24A6.59,6.59,0,0,1,38,35.25Z"/><path class="cls-3" d="M43.41,45.76a5.69,5.69,0,0,0,4.72-2.17v1.87H51v-8c0-4.73-4.09-5.54-6.7-5.54a18.23,18.23,0,0,0-4.72.71v3a15.62,15.62,0,0,1,4.76-.89c2.13,0,3.63.62,3.63,2.24v.6H43.56c-2.93,0-5.57,1-5.57,3.94C38,44.8,41.19,45.76,43.41,45.76Zm.2-5.7h4.44c-.32,1.7-1.6,3-4.24,3-2.17,0-2.67-.87-2.67-1.58C41.14,40.51,42,40.06,43.61,40.06Z"/><path class="cls-3" d="M79.32,26.77v7.32a6.53,6.53,0,0,0-4.86-2.21,6.95,6.95,0,0,0,0,13.88,6.55,6.55,0,0,0,4.86-2.22v1.92h3.13V26.77ZM75.15,43a4.12,4.12,0,1,1,4.17-4.12A4.11,4.11,0,0,1,75.15,43Z"/><path class="cls-3" d="M25.75,52.72a18.14,18.14,0,0,0-4.71.71v3a15.48,15.48,0,0,1,4.76-.89c2.12,0,3.63.62,3.63,2.25v.59H25c-2.93,0-5.57,1-5.57,3.94,0,3.31,3.21,4.27,5.43,4.27a5.66,5.66,0,0,0,4.71-2.17V66.6h2.91V58.27C32.46,53.53,28.36,52.72,25.75,52.72Zm-.52,11.17c-2.17,0-2.66-.86-2.66-1.58,0-1,.86-1.4,2.46-1.4h4.44C29.15,62.61,27.87,63.89,25.23,63.89Z"/><path class="cls-3" d="M35.83,52.49V53H34v2.78h1.85V66.6H39V55.82h3.77V53H39v-.52c0-1.21.86-2.24,2.61-2.24a6.31,6.31,0,0,1,2.61.64v-3a9.35,9.35,0,0,0-2.88-.47A5.26,5.26,0,0,0,35.83,52.49Z"/><path class="cls-3" d="M48.22,55.53V53H45.3V66.6h3.15V62c0-3.84.92-6.23,3.75-6.23a6.26,6.26,0,0,1,1.93.32V53a9.08,9.08,0,0,0-2.05-.29A4,4,0,0,0,48.22,55.53Z"/><polygon class="cls-3" points="55.75 55.87 57.62 55.87 57.62 66.6 60.78 66.6 60.78 53.04 55.75 53.04 55.75 55.87"/><rect class="cls-3" x="57.59" y="47.92" width="3.19" height="3.19"/></svg>