<svg id="Layer_1" data-name="Layer 1" xmlns="http://www.w3.org/2000/svg" viewBox="0 0 100 100"><defs><style>.cls-1{fill:#db4437;}.cls-2{fill:none;}.cls-3{fill:#1a1a1a;}</style></defs><title>Artboard 45 copy 2</title><path class="cls-1" d="M37.13,70.26,40,69v.65l-2,.85h0l2,.84V72l-2.84-1.27Z"/><path class="cls-1" d="M41.38,68h1.43a2.1,2.1,0,1,1,0,4.19H41.38Zm1.39,3.53a1.44,1.44,0,0,0,0-2.87h-.63v2.87Z"/><path class="cls-1" d="M46.32,68h2.51v.66H47.08v1.09h1.41v.66H47.08v1.12h1.84v.66h-2.6Z"/><path class="cls-1" d="M49.76,68h.82l.92,2.73a4.59,4.59,0,0,1,.16.62h0s.08-.38.16-.62L52.76,68h.81l-1.52,4.19h-.76Z"/><path class="cls-1" d="M54.68,68h2.51v.66H55.44v1.09h1.41v.66H55.44v1.12h1.84v.66h-2.6Z"/><path class="cls-1" d="M58.66,68h.76v3.53h1.81v.66H58.66Z"/><path class="cls-1" d="M64.23,67.93a2.12,2.12,0,0,1,2.16,2.14,2.16,2.16,0,1,1-4.32,0A2.12,2.12,0,0,1,64.23,67.93Zm0,3.63a1.42,1.42,0,0,0,1.38-1.49,1.38,1.38,0,1,0-2.76,0A1.41,1.41,0,0,0,64.23,71.56Z"/><path class="cls-1" d="M67.75,68h1.62a1.37,1.37,0,0,1,0,2.74h-.86v1.45h-.76Zm1.47,2.08a.66.66,0,0,0,.71-.71.65.65,0,0,0-.69-.71h-.73v1.42Z"/><path class="cls-1" d="M72,68h2.5v.66H72.72v1.09h1.41v.66H72.72v1.12h1.84v.66H72Z"/><path class="cls-1" d="M75.93,68h1.35a2,2,0,0,1,.85.12,1.29,1.29,0,0,1,0,2.29h0a1,1,0,0,1,.14.21l.86,1.56h-.84l-.83-1.56h-.74v1.56h-.76Zm1.45,2a.61.61,0,0,0,.66-.66c0-.4-.17-.65-.77-.65h-.58V70Z"/><path class="cls-1" d="M80.49,71.12a1.71,1.71,0,0,0,1.05.44.53.53,0,0,0,.6-.51c0-.75-2-.62-2-1.9a1.29,1.29,0,0,1,1.4-1.22,1.76,1.76,0,0,1,1.25.45l-.33.62a1.51,1.51,0,0,0-.92-.37c-.36,0-.63.21-.63.51,0,.74,2,.56,2,1.89a1.24,1.24,0,0,1-1.37,1.23,2,2,0,0,1-1.45-.57Z"/><path class="cls-1" d="M85.38,67.79H86l-1.5,4.65h-.64Z"/><path class="cls-1" d="M87,71.35l2-.84h0l-2-.85V69l2.84,1.26v.48L87,72Z"/><path class="cls-1" d="M70.13,64.63H66.22l-4.88-4.88-1.14,1v3.86H57.44V39.86c0-1.63-.67-3-2.7-3A3.61,3.61,0,0,0,51,40.4v5.72H48.25V34.5h2.56v1.62A5.42,5.42,0,0,1,55,34.22c2.74,0,5.25,1.88,5.25,5.66V57.37l4.55-4.62h3.7l-5.1,5.1Z"/><path class="cls-2" d="M23.31,40.31a3.66,3.66,0,1,0-3.65,3.61A3.6,3.6,0,0,0,23.31,40.31Z"/><path class="cls-2" d="M40.35,44c2.31,0,3.44-1.12,3.72-2.61H40.18c-1.41,0-2.16.39-2.16,1.23C38,43.25,38.45,44,40.35,44Z"/><path class="cls-2" d="M67.8,36.7a3.61,3.61,0,1,0,3.65,3.61A3.6,3.6,0,0,0,67.8,36.7Z"/><path class="cls-2" d="M21.75,60.87c0,.63.43,1.39,2.33,1.39,2.31,0,3.44-1.13,3.72-2.62H23.91C22.5,59.64,21.75,60,21.75,60.87Z"/><path class="cls-3" d="M26.08,40.31a5.86,5.86,0,0,0-10.21-4.15V29.75H13.25V46.12h2.62V44.43a5.85,5.85,0,0,0,10.21-4.12ZM16,40.31a3.66,3.66,0,1,1,3.67,3.61A3.61,3.61,0,0,1,16,40.31Z"/><path class="cls-3" d="M35.23,37.18v-2.7a7.57,7.57,0,0,0-1.79-.26,3.49,3.49,0,0,0-3.38,2.46V34.5H27.5V46.12h2.77V42.36c0-3.37.79-5.46,3.28-5.46A5.43,5.43,0,0,1,35.23,37.18Z"/><path class="cls-3" d="M40,46.38a5,5,0,0,0,4.13-1.9v1.64h2.55v-7c0-4.15-3.59-4.86-5.88-4.86a16.15,16.15,0,0,0-4.12.62v2.64a13.7,13.7,0,0,1,4.17-.78c1.85,0,3.17.54,3.17,2v.52H40.13c-2.57,0-4.88.84-4.88,3.45C35.25,45.53,38.06,46.38,40,46.38Zm.18-5h3.89C43.79,42.88,42.66,44,40.35,44c-1.9,0-2.33-.75-2.33-1.38C38,41.78,38.77,41.39,40.18,41.39Z"/><path class="cls-3" d="M71.45,29.75v6.41a5.73,5.73,0,0,0-4.25-1.94,6.08,6.08,0,0,0,0,12.16,5.75,5.75,0,0,0,4.25-2v1.69h2.74V29.75ZM67.8,43.92a3.61,3.61,0,1,1,3.65-3.61A3.6,3.6,0,0,1,67.8,43.92Z"/><path class="cls-3" d="M24.54,52.47a15.66,15.66,0,0,0-4.13.63v2.63A13.78,13.78,0,0,1,24.58,55c1.86,0,3.17.54,3.17,2v.52H23.86c-2.56,0-4.88.84-4.88,3.45,0,2.9,2.81,3.74,4.75,3.74a5,5,0,0,0,4.13-1.9v1.9h2.55v-7.3C30.41,53.19,26.82,52.47,24.54,52.47Zm-.46,9.79c-1.9,0-2.33-.76-2.33-1.39,0-.84.75-1.23,2.16-1.23H27.8C27.52,61.13,26.39,62.26,24.08,62.26Z"/><path class="cls-3" d="M33.37,52.28v.47H31.75v2.44h1.62v9.44h2.74V55.19h3.3V52.75h-3.3V52.3c0-1.06.75-2,2.29-2a5.56,5.56,0,0,1,2.29.57V48.26a8.36,8.36,0,0,0-2.53-.41A4.6,4.6,0,0,0,33.37,52.28Z"/><path class="cls-3" d="M44.21,54.93V52.75H41.65V64.63h2.77v-4c0-3.36.8-5.46,3.28-5.46a5.78,5.78,0,0,1,1.69.28v-2.7a7.66,7.66,0,0,0-1.8-.26A3.5,3.5,0,0,0,44.21,54.93Z"/><polygon class="cls-3" points="50.81 55.24 52.45 55.24 52.45 64.63 55.21 64.63 55.21 52.75 50.81 52.75 50.81 55.24"/><rect class="cls-3" x="52.42" y="48.28" width="2.79" height="2.79"/></svg>