<svg id="Layer_1" data-name="Layer 1" xmlns="http://www.w3.org/2000/svg" viewBox="0 0 100 100"><defs><style>.cls-1{fill:#0f9d58;}.cls-2{fill:none;}.cls-3{fill:#1a1a1a;}</style></defs><title>Artboard 45 copy 4</title><path class="cls-1" d="M47.39,72.55a1.89,1.89,0,0,1,1.29.44l-.31.47a1.54,1.54,0,0,0-.93-.33,1.13,1.13,0,0,0-1.19,1.19,1.16,1.16,0,0,0,1.16,1.24,1.29,1.29,0,0,0,.87-.36v-.41h-.53v-.54h1.1v1.83h-.54v-.17a1.13,1.13,0,0,1,0-.14h0a1.47,1.47,0,0,1-1,.37,1.71,1.71,0,0,1-1.7-1.8A1.75,1.75,0,0,1,47.39,72.55Z"/><path class="cls-1" d="M50.13,71.92h1.34a1.82,1.82,0,0,1,.84.12A1.17,1.17,0,0,1,53,73.17a1.21,1.21,0,0,1-.71,1.14h0a1.19,1.19,0,0,1,.15.21l.85,1.55h-.84l-.83-1.55h-.73v1.55h-.75Zm1.43,2a.6.6,0,0,0,.66-.66c0-.4-.17-.64-.76-.64h-.58v1.3Z"/><path class="cls-1" d="M56.84,71.13a2.46,2.46,0,0,1,2.52,2.48,2.52,2.52,0,1,1-5,0A2.46,2.46,0,0,1,56.84,71.13Zm0,4.22a1.65,1.65,0,0,0,1.61-1.74,1.61,1.61,0,1,0-3.21,0A1.65,1.65,0,0,0,56.84,75.35Z"/><path class="cls-1" d="M65.52,74.36c.08.32.09.59.1.59h0s0-.27.1-.59l.91-3.84h1l-1.43,5.56H65.08l-.85-3.29c-.09-.36-.14-.73-.14-.73h0a5.21,5.21,0,0,1-.14.73l-.85,3.29H61.91l-1.39-5.56h1l.88,3.84a4.72,4.72,0,0,1,.09.59h0a3.91,3.91,0,0,1,.1-.59l1-3.84h.88Z"/><path class="cls-1" d="M78.61,67.68H74.15L68.57,62.1l-1.31,1.16v4.42H64.11V39.39c0-1.85-.77-3.48-3.09-3.48A4.12,4.12,0,0,0,56.78,40v6.54H53.63V33.27h2.91v1.85A6.23,6.23,0,0,1,61.27,33c3.13,0,6,2.15,6,6.46v20l5.21-5.28h4.21l-5.82,5.82Z"/><path class="cls-2" d="M25.14,39.91A4.18,4.18,0,1,0,21,44,4.1,4.1,0,0,0,25.14,39.91Z"/><path class="cls-2" d="M44.6,44.13c2.64,0,3.92-1.29,4.24-3H44.4c-1.6,0-2.47.45-2.47,1.41C41.93,43.26,42.43,44.13,44.6,44.13Z"/><path class="cls-2" d="M75.94,35.79a4.12,4.12,0,1,0,4.17,4.12A4.11,4.11,0,0,0,75.94,35.79Z"/><path class="cls-2" d="M23.36,63.39c0,.72.49,1.58,2.66,1.58,2.64,0,3.92-1.28,4.24-3H25.82C24.22,62,23.36,62.43,23.36,63.39Z"/><path class="cls-3" d="M28.3,39.91a6.69,6.69,0,0,0-11.66-4.74V27.85h-3V46.54h3V44.62A6.69,6.69,0,0,0,28.3,39.91Zm-11.52,0A4.18,4.18,0,1,1,21,44,4.12,4.12,0,0,1,16.78,39.91Z"/><path class="cls-3" d="M38.76,36.33V33.25a9,9,0,0,0-2-.3,4,4,0,0,0-3.86,2.82V33.28H29.93V46.54h3.15V42.25c0-3.84.91-6.24,3.75-6.24A6.59,6.59,0,0,1,38.76,36.33Z"/><path class="cls-3" d="M44.2,46.84a5.65,5.65,0,0,0,4.71-2.17v1.87h2.91v-8c0-4.73-4.09-5.54-6.7-5.54a18.23,18.23,0,0,0-4.72.71v3a15.62,15.62,0,0,1,4.76-.89c2.13,0,3.63.62,3.63,2.24v.6H44.35c-2.93,0-5.57,1-5.57,3.94C38.78,45.88,42,46.84,44.2,46.84Zm.2-5.7h4.44c-.32,1.7-1.6,3-4.24,3-2.17,0-2.67-.87-2.67-1.58C41.93,41.59,42.8,41.14,44.4,41.14Z"/><path class="cls-3" d="M80.11,27.85v7.32A6.53,6.53,0,0,0,75.25,33a6.95,6.95,0,0,0,0,13.88,6.55,6.55,0,0,0,4.86-2.22v1.92h3.13V27.85ZM75.94,44a4.12,4.12,0,1,1,4.17-4.12A4.11,4.11,0,0,1,75.94,44Z"/><path class="cls-3" d="M26.54,53.8a18.14,18.14,0,0,0-4.71.71v3a15.48,15.48,0,0,1,4.76-.89c2.12,0,3.62.62,3.62,2.25v.59H25.77c-2.93,0-5.57,1-5.57,3.94,0,3.31,3.21,4.27,5.42,4.27a5.66,5.66,0,0,0,4.72-2.17v2.18h2.91V59.35C33.25,54.61,29.15,53.8,26.54,53.8ZM26,65c-2.17,0-2.66-.86-2.66-1.58,0-1,.86-1.4,2.46-1.4h4.44C29.94,63.69,28.66,65,26,65Z"/><path class="cls-3" d="M36.62,53.58v.54H34.77v2.79h1.85V67.68h3.13V56.91h3.78V54.12H39.75V53.6c0-1.21.87-2.24,2.62-2.24A6.31,6.31,0,0,1,45,52V49a9.35,9.35,0,0,0-2.88-.47A5.27,5.27,0,0,0,36.62,53.58Z"/><path class="cls-3" d="M49,56.61V54.12H46.09V67.68h3.15V63.1c0-3.85.92-6.24,3.75-6.24a6.26,6.26,0,0,1,1.93.32V54.09a9.08,9.08,0,0,0-2.05-.29A4,4,0,0,0,49,56.61Z"/><polygon class="cls-3" points="56.54 56.95 58.41 56.95 58.41 67.69 61.57 67.69 61.57 54.12 56.54 54.12 56.54 56.95"/><rect class="cls-3" x="58.38" y="49.01" width="3.19" height="3.19"/></svg>