<svg id="Layer_1" data-name="Layer 1" xmlns="http://www.w3.org/2000/svg" viewBox="0 0 100 100"><defs><style>.cls-1{fill:#db4437;}.cls-2{fill:#0f9d58;}.cls-3{fill:#f4b400;}.cls-4{fill:none;}.cls-5{fill:#1a1a1a;}</style></defs><title>Artboard 45 copy</title><path class="cls-1" d="M68.21,42.86V50H65v-7.2c0-1.86-.77-3.5-3.11-3.5a4.15,4.15,0,0,0-4.27,4.12V50H54.47V36.67H57.4v1.86a6.32,6.32,0,0,1,4.77-2.18C65.33,36.35,68.21,38.51,68.21,42.86Z"/><polygon class="cls-2" points="79.63 71.33 75.14 71.33 69.52 65.71 68.21 66.88 68.21 71.33 65.03 71.33 65.03 57.66 68.21 57.66 68.21 62.98 73.45 57.66 77.69 57.66 71.83 63.53 79.63 71.33"/><rect class="cls-3" x="65.03" y="50.03" width="3.18" height="7.64"/><path class="cls-4" d="M25.79,43.35a4.21,4.21,0,1,0-4.2,4.15A4.14,4.14,0,0,0,25.79,43.35Z"/><path class="cls-4" d="M45.38,47.6c2.66,0,3.95-1.29,4.27-3H45.18c-1.62,0-2.48.45-2.48,1.42C42.7,46.73,43.19,47.6,45.38,47.6Z"/><path class="cls-4" d="M77,39.21a4.15,4.15,0,1,0,4.19,4.14A4.14,4.14,0,0,0,77,39.21Z"/><path class="cls-4" d="M24,67c0,.72.49,1.59,2.68,1.59,2.66,0,3.95-1.29,4.27-3H26.47C24.86,65.59,24,66,24,67Z"/><path class="cls-5" d="M29,43.35a6.74,6.74,0,0,0-11.75-4.77V31.21h-3V50h3V48.1A6.74,6.74,0,0,0,29,43.35Zm-11.6,0a4.21,4.21,0,1,1,4.22,4.15A4.14,4.14,0,0,1,17.37,43.35Z"/><path class="cls-5" d="M39.5,39.75v-3.1a8.68,8.68,0,0,0-2.07-.3,4,4,0,0,0-3.88,2.83V36.67H30.6V50h3.18V45.71c0-3.87.92-6.28,3.78-6.28A6.68,6.68,0,0,1,39.5,39.75Z"/><path class="cls-5" d="M45,50.33a5.72,5.72,0,0,0,4.75-2.18V50h2.93V41.94c0-4.77-4.13-5.59-6.76-5.59a18.27,18.27,0,0,0-4.74.72v3A15.58,15.58,0,0,1,46,39.2c2.14,0,3.65.63,3.65,2.26v.6H45.13c-3,0-5.61,1-5.61,4C39.52,49.36,42.75,50.33,45,50.33Zm.2-5.74h4.47c-.32,1.72-1.61,3-4.27,3-2.19,0-2.68-.87-2.68-1.59C42.7,45,43.56,44.59,45.18,44.59Z"/><path class="cls-5" d="M81.14,31.21v7.37a6.58,6.58,0,0,0-4.89-2.23,7,7,0,0,0,0,14,6.58,6.58,0,0,0,4.89-2.23V50H84.3V31.21ZM77,47.5a4.15,4.15,0,1,1,4.19-4.15A4.15,4.15,0,0,1,77,47.5Z"/><path class="cls-5" d="M27.19,57.34a18.34,18.34,0,0,0-4.74.72v3a15.72,15.72,0,0,1,4.79-.89c2.14,0,3.65.62,3.65,2.26v.59H26.42c-3,0-5.61,1-5.61,4,0,3.33,3.23,4.3,5.46,4.3A5.72,5.72,0,0,0,31,69.14v2.19H34v-8.4C34,58.16,29.82,57.34,27.19,57.34Zm-.52,11.25C24.48,68.59,24,67.72,24,67c0-1,.87-1.41,2.48-1.41h4.47C30.62,67.3,29.33,68.59,26.67,68.59Z"/><path class="cls-5" d="M37.35,57.12v.54H35.48v2.81h1.87V71.33H40.5V60.47h3.8V57.66H40.5v-.52c0-1.22.87-2.26,2.64-2.26a6.45,6.45,0,0,1,2.63.65v-3A9.27,9.27,0,0,0,42.86,52,5.29,5.29,0,0,0,37.35,57.12Z"/><path class="cls-5" d="M49.82,60.17V57.66H46.88V71.33h3.18V66.71c0-3.88.92-6.29,3.78-6.29a6.59,6.59,0,0,1,1.93.32v-3.1a8.51,8.51,0,0,0-2.06-.3A4,4,0,0,0,49.82,60.17Z"/><polygon class="cls-5" points="57.41 60.52 59.29 60.52 59.29 71.33 62.47 71.33 62.47 57.66 57.41 57.66 57.41 60.52"/><rect class="cls-5" x="59.26" y="52.51" width="3.21" height="3.21"/></svg>